<svg width="1440" height="900" viewBox="0 0 1440 900" fill="none" xmlns="http://www.w3.org/2000/svg">
  <rect width="1440" height="900" fill="#F7FAFF"/>
  <path d="M0 0H1440V900H0V0Z" fill="url(#bg)"/>

  <rect x="340" y="0" width="760" height="54" rx="0" fill="#FFFFFF" fill-opacity="0.92"/>
  <g font-family="Arial, 'PingFang SC', sans-serif">
    <circle cx="386" cy="27" r="14" fill="#4FD1C5"/>
    <text x="386" y="33" text-anchor="middle" font-size="13" font-weight="700" fill="#252237">1</text>
    <text x="410" y="23" font-size="14" font-weight="700" fill="#252237">创建房间</text>
    <text x="410" y="40" font-size="11" fill="#66607A">1 min</text>
    <path d="M500 27H565" stroke="#D7DCE8" stroke-width="2"/>
    <circle cx="592" cy="27" r="14" fill="#4FD1C5"/>
    <text x="592" y="33" text-anchor="middle" font-size="13" font-weight="700" fill="#252237">2</text>
    <text x="616" y="23" font-size="14" font-weight="700" fill="#252237">分享小事</text>
    <text x="616" y="40" font-size="11" fill="#66607A">1-2 min/人</text>
    <path d="M716 27H781" stroke="#D7DCE8" stroke-width="2"/>
    <circle cx="808" cy="27" r="14" fill="#FFD45B"/>
    <text x="808" y="33" text-anchor="middle" font-size="13" font-weight="700" fill="#252237">3</text>
    <text x="832" y="23" font-size="14" font-weight="700" fill="#252237">同伴提问</text>
    <text x="832" y="40" font-size="11" fill="#66607A">30s/人</text>
    <path d="M932 27H997" stroke="#D7DCE8" stroke-width="2"/>
    <circle cx="1024" cy="27" r="14" fill="#FF7B7B"/>
    <text x="1024" y="33" text-anchor="middle" font-size="13" font-weight="700" fill="#252237">4</text>
    <text x="1048" y="23" font-size="14" font-weight="700" fill="#252237">AI生成碎片</text>
    <text x="1048" y="40" font-size="11" fill="#66607A">10s/人</text>
  </g>

  <rect x="32" y="74" width="945" height="786" rx="8" fill="#FFFFFF" fill-opacity="0.92" stroke="#E3E8F0"/>
  <rect x="998" y="74" width="410" height="786" rx="8" fill="#FFFFFF" fill-opacity="0.96" stroke="#E3E8F0"/>

  <g font-family="Arial, 'PingFang SC', sans-serif">
    <circle cx="76" cy="116" r="24" fill="#DDFAF5"/>
    <text x="76" y="124" text-anchor="middle" font-size="24">人</text>
    <text x="116" y="112" font-size="24" font-weight="800" fill="#252237">正在拼图：玩家</text>
    <text x="116" y="140" font-size="15" fill="#66607A">移动 1 块碎片，让画面更完整</text>
    <rect x="820" y="92" width="118" height="70" rx="8" fill="#EAF2FF"/>
    <text x="879" y="119" text-anchor="middle" font-size="13" fill="#66607A">本轮倒计时</text>
    <text x="879" y="148" text-anchor="middle" font-size="28" font-weight="800" fill="#6C63FF">03:00</text>
  </g>

  <g transform="translate(118 188)">
    <rect x="0" y="0" width="720" height="620" rx="8" fill="#FFFDF7" stroke="#DDE4EA" stroke-width="2"/>
    <rect x="30" y="30" width="560" height="560" rx="8" fill="#EAF7F3" stroke="#252237" stroke-opacity="0.18" stroke-width="3"/>
    <defs>
      <linearGradient id="puzzleGrad" x1="30" y1="30" x2="590" y2="590" gradientUnits="userSpaceOnUse">
        <stop stop-color="#DDF7F1"/>
        <stop offset="0.45" stop-color="#FFF3D8"/>
        <stop offset="1" stop-color="#F0EAFE"/>
      </linearGradient>
    </defs>
    <rect x="30" y="30" width="560" height="560" rx="8" fill="url(#puzzleGrad)"/>
    <g stroke="#FFFFFF" stroke-width="4" stroke-opacity="0.9">
      <path d="M170 30V590M310 30V590M450 30V590M30 170H590M30 310H590M30 450H590"/>
    </g>
    <g opacity="0.9">
      <circle cx="130" cy="130" r="38" fill="#FFD45B"/>
      <path d="M80 480C150 390 225 385 305 472C375 548 475 514 545 430" stroke="#4FD1C5" stroke-width="18" stroke-linecap="round"/>
      <path d="M370 142C430 104 490 114 535 162" stroke="#6C63FF" stroke-width="14" stroke-linecap="round"/>
      <rect x="235" y="220" width="150" height="100" rx="8" fill="#FFFFFF" fill-opacity="0.55"/>
      <circle cx="310" cy="252" r="28" fill="#FF7B7B"/>
      <path d="M258 300H362" stroke="#252237" stroke-opacity="0.35" stroke-width="8" stroke-linecap="round"/>
    </g>
    <text x="642" y="285" font-family="Arial, 'PingFang SC', sans-serif" font-size="52" font-weight="800" fill="#6C63FF" transform="rotate(90 642 285)">4 × 4</text>
  </g>

  <g font-family="Arial, 'PingFang SC', sans-serif">
    <text x="1028" y="112" font-size="20" font-weight="800" fill="#252237">当前玩家</text>
    <text x="1360" y="112" text-anchor="end" font-size="13" fill="#66607A">拼图中</text>
    <rect x="1028" y="134" width="350" height="74" rx="8" fill="#F7FAFF" stroke="#E3E8F0"/>
    <circle cx="1064" cy="171" r="22" fill="#DDFAF5"/>
    <text x="1064" y="179" text-anchor="middle" font-size="22">人</text>
    <text x="1100" y="166" font-size="18" font-weight="800" fill="#252237">玩家</text>
    <text x="1100" y="190" font-size="13" fill="#66607A">完成这一轮后，把 iPad 交给下一位。</text>

    <g transform="translate(1028 224)">
      <rect width="106" height="62" rx="8" fill="#FFF7D8" stroke="#E3E8F0"/>
      <text x="53" y="25" text-anchor="middle" font-size="12" fill="#66607A">步数</text>
      <text x="53" y="48" text-anchor="middle" font-size="22" font-weight="800" fill="#6C63FF">0</text>
      <rect x="122" width="106" height="62" rx="8" fill="#EAF2FF" stroke="#E3E8F0"/>
      <text x="175" y="25" text-anchor="middle" font-size="12" fill="#66607A">用时</text>
      <text x="175" y="48" text-anchor="middle" font-size="22" font-weight="800" fill="#6C63FF">00:00</text>
      <rect x="244" width="106" height="62" rx="8" fill="#F0EAFE" stroke="#E3E8F0"/>
      <text x="297" y="25" text-anchor="middle" font-size="12" fill="#66607A">完成度</text>
      <text x="297" y="48" text-anchor="middle" font-size="22" font-weight="800" fill="#6C63FF">16/16</text>
    </g>

    <text x="1028" y="334" font-size="20" font-weight="800" fill="#252237">语音生图</text>
    <text x="1360" y="334" text-anchor="end" font-size="13" fill="#66607A">共享屏幕操作区</text>
    <rect x="1028" y="356" width="350" height="58" rx="8" fill="#FFF3D8" stroke="#FFD45B"/>
    <rect x="1046" y="364" width="42" height="42" rx="8" fill="#DDFAF5" stroke="#4FD1C5"/>
    <path d="M1067 374C1061 374 1058 379 1058 386C1058 393 1061 398 1067 398C1073 398 1076 393 1076 386C1076 379 1073 374 1067 374Z" stroke="#244C59" stroke-width="2"/>
    <path d="M1053 389C1053 402 1059 408 1067 408C1075 408 1081 402 1081 389" stroke="#244C59" stroke-width="2" stroke-linecap="round"/>
    <text x="1106" y="392" font-size="17" font-weight="800" fill="#252237">开始说话</text>
    <rect x="1028" y="428" width="350" height="96" rx="8" fill="#FFFFFF" stroke="#E3E8F0"/>
    <text x="1050" y="466" font-size="17" fill="#8A849B">说一件最近发生的小事，或者直接输入故事。</text>

    <rect x="1028" y="544" width="350" height="258" rx="8" fill="#F7FAFF" stroke="#E3E8F0"/>
    <text x="1050" y="580" font-size="18" font-weight="800" fill="#252237">同伴提问</text>
    <text x="1050" y="604" font-size="13" fill="#66607A">先帮故事补细节，再生成画面</text>
    <rect x="1050" y="626" width="306" height="70" rx="8" fill="#FFFFFF" stroke="#E3E8F0"/>
    <text x="1070" y="655" font-size="16" font-weight="800" fill="#252237">画面描述式</text>
    <text x="1070" y="678" font-size="13" fill="#66607A">画面里有什么？</text>
    <rect x="1254" y="646" width="82" height="32" rx="8" fill="#DDFAF5"/>
    <text x="1295" y="668" text-anchor="middle" font-size="13" font-weight="700" fill="#252237">语音补充</text>
    <rect x="1050" y="714" width="306" height="70" rx="8" fill="#FFFFFF" stroke="#E3E8F0"/>
    <text x="1070" y="743" font-size="16" font-weight="800" fill="#252237">感受描述式</text>
    <text x="1070" y="766" font-size="13" fill="#66607A">是什么感觉？</text>
    <rect x="1254" y="734" width="82" height="32" rx="8" fill="#FFF7D8"/>
    <text x="1295" y="756" text-anchor="middle" font-size="13" font-weight="700" fill="#252237">语音补充</text>

    <g transform="translate(1028 820)">
      <rect width="110" height="48" rx="8" fill="#EAF7F3" stroke="#4FD1C5" stroke-width="2"/>
      <text x="55" y="30" text-anchor="middle" font-size="15" font-weight="800" fill="#252237">治愈风</text>
      <rect x="120" width="110" height="48" rx="8" fill="#FFFFFF" stroke="#E3E8F0"/>
      <text x="175" y="30" text-anchor="middle" font-size="15" font-weight="800" fill="#252237">抽象风</text>
      <rect x="240" width="110" height="48" rx="8" fill="#FFFFFF" stroke="#E3E8F0"/>
      <text x="295" y="30" text-anchor="middle" font-size="15" font-weight="800" fill="#252237">色块风</text>
    </g>
  </g>

  <defs>
    <linearGradient id="bg" x1="0" y1="0" x2="1440" y2="900" gradientUnits="userSpaceOnUse">
      <stop stop-color="#EDF6F1"/>
      <stop offset="0.52" stop-color="#F6F7EA"/>
      <stop offset="1" stop-color="#EAF3F7"/>
    </linearGradient>
  </defs>
</svg>
