<svg width="1920" height="2400" viewBox="0 0 1920 2400" fill="none" xmlns="http://www.w3.org/2000/svg">
  <rect width="1920" height="2400" rx="0" fill="#F7FAFF"/>
  <path d="M0 0H1920V430H0V0Z" fill="#EAF7F3"/>
  <path d="M1140 0H1920V430H1140V0Z" fill="#FFF3D8"/>
  <path d="M146 132C178 88 232 62 292 62H1628C1694 62 1748 116 1748 182V292C1748 358 1694 412 1628 412H292C226 412 172 358 172 292V250C172 208 129 178 146 132Z" fill="white" fill-opacity="0.76"/>

  <text x="160" y="132" fill="#252237" font-family="Manrope, Arial, 'PingFang SC', sans-serif" font-size="34" font-weight="700">Story Puzzle</text>
  <text x="160" y="200" fill="#252237" font-family="Manrope, Arial, 'PingFang SC', sans-serif" font-size="72" font-weight="800">UI 规范与使用流程</text>
  <text x="160" y="265" fill="#4E596F" font-family="Arial, 'PingFang SC', sans-serif" font-size="30">面向低压力轻社交场景：语音讲述、同伴补充、AI 生图、协作拼图。</text>
  <text x="160" y="320" fill="#4E596F" font-family="Arial, 'PingFang SC', sans-serif" font-size="24">核心目标：让表达被听见，让互动变轻，让共同完成变可见。</text>

  <rect x="1380" y="128" width="236" height="72" rx="8" fill="#4FD1C5"/>
  <text x="1498" y="174" text-anchor="middle" fill="#252237" font-family="Arial, 'PingFang SC', sans-serif" font-size="25" font-weight="700">低压力表达</text>
  <rect x="1380" y="224" width="236" height="72" rx="8" fill="#FFD45B"/>
  <text x="1498" y="270" text-anchor="middle" fill="#252237" font-family="Arial, 'PingFang SC', sans-serif" font-size="25" font-weight="700">协作完成</text>

  <text x="160" y="535" fill="#252237" font-family="Manrope, Arial, 'PingFang SC', sans-serif" font-size="42" font-weight="800">1. 用户旅程</text>
  <text x="160" y="580" fill="#66607A" font-family="Arial, 'PingFang SC', sans-serif" font-size="24">从轻微紧张到共同完成，流程保持简短、可见、可参与。</text>

  <g>
    <rect x="160" y="640" width="250" height="250" rx="8" fill="#FFFFFF" stroke="#5BC7A6" stroke-width="3"/>
    <circle cx="202" cy="682" r="18" fill="#5BC7A6"/>
    <text x="232" y="692" fill="#252237" font-family="Arial, 'PingFang SC', sans-serif" font-size="26" font-weight="700">进入游戏</text>
    <text x="190" y="748" fill="#4E596F" font-family="Arial, 'PingFang SC', sans-serif" font-size="21">快速加入</text>
    <text x="190" y="788" fill="#4E596F" font-family="Arial, 'PingFang SC', sans-serif" font-size="21">规则一眼看懂</text>
    <text x="190" y="840" fill="#66607A" font-family="Arial, 'PingFang SC', sans-serif" font-size="18">情绪：轻微紧张</text>
  </g>
  <path d="M430 765H500" stroke="#252237" stroke-width="4" stroke-linecap="round"/>
  <path d="M500 765L482 752V778L500 765Z" fill="#252237"/>

  <g>
    <rect x="520" y="640" width="250" height="250" rx="8" fill="#FFFFFF" stroke="#F7B955" stroke-width="3"/>
    <circle cx="562" cy="682" r="18" fill="#F7B955"/>
    <text x="592" y="692" fill="#252237" font-family="Arial, 'PingFang SC', sans-serif" font-size="26" font-weight="700">讲故事</text>
    <text x="550" y="748" fill="#4E596F" font-family="Arial, 'PingFang SC', sans-serif" font-size="21">语音输入</text>
    <text x="550" y="788" fill="#4E596F" font-family="Arial, 'PingFang SC', sans-serif" font-size="21">固定提示语</text>
    <text x="550" y="840" fill="#66607A" font-family="Arial, 'PingFang SC', sans-serif" font-size="18">情绪：犹豫试探</text>
  </g>
  <path d="M790 765H860" stroke="#252237" stroke-width="4" stroke-linecap="round"/>
  <path d="M860 765L842 752V778L860 765Z" fill="#252237"/>

  <g>
    <rect x="880" y="640" width="250" height="250" rx="8" fill="#FFFFFF" stroke="#A58AF5" stroke-width="3"/>
    <circle cx="922" cy="682" r="18" fill="#A58AF5"/>
    <text x="952" y="692" fill="#252237" font-family="Arial, 'PingFang SC', sans-serif" font-size="26" font-weight="700">同伴提问</text>
    <text x="910" y="748" fill="#4E596F" font-family="Arial, 'PingFang SC', sans-serif" font-size="21">画面描述式</text>
    <text x="910" y="788" fill="#4E596F" font-family="Arial, 'PingFang SC', sans-serif" font-size="21">感受描述式</text>
    <text x="910" y="840" fill="#66607A" font-family="Arial, 'PingFang SC', sans-serif" font-size="18">情绪：被倾听</text>
  </g>
  <path d="M1150 765H1220" stroke="#252237" stroke-width="4" stroke-linecap="round"/>
  <path d="M1220 765L1202 752V778L1220 765Z" fill="#252237"/>

  <g>
    <rect x="1240" y="640" width="250" height="250" rx="8" fill="#FFFFFF" stroke="#6BA8FF" stroke-width="3"/>
    <circle cx="1282" cy="682" r="18" fill="#6BA8FF"/>
    <text x="1312" y="692" fill="#252237" font-family="Arial, 'PingFang SC', sans-serif" font-size="26" font-weight="700">AI 生成</text>
    <text x="1270" y="748" fill="#4E596F" font-family="Arial, 'PingFang SC', sans-serif" font-size="21">关键词可见</text>
    <text x="1270" y="788" fill="#4E596F" font-family="Arial, 'PingFang SC', sans-serif" font-size="21">风格可选择</text>
    <text x="1270" y="840" fill="#66607A" font-family="Arial, 'PingFang SC', sans-serif" font-size="18">情绪：期待</text>
  </g>
  <path d="M1510 765H1580" stroke="#252237" stroke-width="4" stroke-linecap="round"/>
  <path d="M1580 765L1562 752V778L1580 765Z" fill="#252237"/>

  <g>
    <rect x="1600" y="640" width="250" height="250" rx="8" fill="#FFFFFF" stroke="#FF7B7B" stroke-width="3"/>
    <circle cx="1642" cy="682" r="18" fill="#FF7B7B"/>
    <text x="1672" y="692" fill="#252237" font-family="Arial, 'PingFang SC', sans-serif" font-size="26" font-weight="700">协作拼图</text>
    <text x="1630" y="748" fill="#4E596F" font-family="Arial, 'PingFang SC', sans-serif" font-size="21">4x4 拼图</text>
    <text x="1630" y="788" fill="#4E596F" font-family="Arial, 'PingFang SC', sans-serif" font-size="21">3 分钟限时</text>
    <text x="1630" y="840" fill="#66607A" font-family="Arial, 'PingFang SC', sans-serif" font-size="18">情绪：投入愉快</text>
  </g>

  <text x="160" y="1015" fill="#252237" font-family="Manrope, Arial, 'PingFang SC', sans-serif" font-size="42" font-weight="800">2. 双钻模型</text>
  <text x="160" y="1060" fill="#66607A" font-family="Arial, 'PingFang SC', sans-serif" font-size="24">从社交压力出发，收敛到低压力协作体验，再展开为可试玩原型。</text>
  <path d="M170 1280L470 1100L770 1280L470 1460Z" fill="#EAF7F3" stroke="#46B998" stroke-width="5"/>
  <path d="M770 1280L1070 1100L1370 1280L1070 1460Z" fill="#F0EAFE" stroke="#8D73E8" stroke-width="5"/>
  <path d="M470 1280H755" stroke="#252237" stroke-width="4" stroke-dasharray="12 14"/>
  <path d="M785 1280H1070" stroke="#252237" stroke-width="4" stroke-dasharray="12 14"/>
  <text x="275" y="1260" fill="#252237" font-family="Arial, 'PingFang SC', sans-serif" font-size="30" font-weight="700">发现问题</text>
  <text x="275" y="1310" fill="#4E596F" font-family="Arial, 'PingFang SC', sans-serif" font-size="22">表达压力</text>
  <text x="275" y="1344" fill="#4E596F" font-family="Arial, 'PingFang SC', sans-serif" font-size="22">怕被评价</text>
  <text x="470" y="1260" text-anchor="middle" fill="#252237" font-family="Arial, 'PingFang SC', sans-serif" font-size="30" font-weight="700">定义问题</text>
  <text x="470" y="1310" text-anchor="middle" fill="#4E596F" font-family="Arial, 'PingFang SC', sans-serif" font-size="22">如何让表达</text>
  <text x="470" y="1344" text-anchor="middle" fill="#4E596F" font-family="Arial, 'PingFang SC', sans-serif" font-size="22">变成共同完成</text>
  <text x="1070" y="1260" text-anchor="middle" fill="#252237" font-family="Arial, 'PingFang SC', sans-serif" font-size="30" font-weight="700">发展方案</text>
  <text x="1070" y="1310" text-anchor="middle" fill="#4E596F" font-family="Arial, 'PingFang SC', sans-serif" font-size="22">语音、提问</text>
  <text x="1070" y="1344" text-anchor="middle" fill="#4E596F" font-family="Arial, 'PingFang SC', sans-serif" font-size="22">生图、拼图</text>
  <text x="1190" y="1260" fill="#252237" font-family="Arial, 'PingFang SC', sans-serif" font-size="30" font-weight="700">交付原型</text>
  <text x="1190" y="1310" fill="#4E596F" font-family="Arial, 'PingFang SC', sans-serif" font-size="22">单屏 iPad</text>
  <text x="1190" y="1344" fill="#4E596F" font-family="Arial, 'PingFang SC', sans-serif" font-size="22">完整游戏闭环</text>

  <text x="160" y="1595" fill="#252237" font-family="Manrope, Arial, 'PingFang SC', sans-serif" font-size="42" font-weight="800">3. 样式 Tokens</text>
  <text x="160" y="1640" fill="#66607A" font-family="Arial, 'PingFang SC', sans-serif" font-size="24">颜色、字号、间距与圆角，优先服务同屏可读性和轻社交氛围。</text>

  <g>
    <rect x="160" y="1695" width="150" height="150" rx="8" fill="#4FD1C5"/>
    <text x="160" y="1885" fill="#252237" font-family="Arial, sans-serif" font-size="20" font-weight="700">Primary</text>
    <text x="160" y="1918" fill="#66607A" font-family="Arial, sans-serif" font-size="18">#4FD1C5</text>
    <rect x="350" y="1695" width="150" height="150" rx="8" fill="#FFD45B"/>
    <text x="350" y="1885" fill="#252237" font-family="Arial, sans-serif" font-size="20" font-weight="700">Warm</text>
    <text x="350" y="1918" fill="#66607A" font-family="Arial, sans-serif" font-size="18">#FFD45B</text>
    <rect x="540" y="1695" width="150" height="150" rx="8" fill="#FF7B7B"/>
    <text x="540" y="1885" fill="#252237" font-family="Arial, sans-serif" font-size="20" font-weight="700">Coral</text>
    <text x="540" y="1918" fill="#66607A" font-family="Arial, sans-serif" font-size="18">#FF7B7B</text>
    <rect x="730" y="1695" width="150" height="150" rx="8" fill="#6C63FF"/>
    <text x="730" y="1885" fill="#252237" font-family="Arial, sans-serif" font-size="20" font-weight="700">Accent</text>
    <text x="730" y="1918" fill="#66607A" font-family="Arial, sans-serif" font-size="18">#6C63FF</text>
  </g>

  <rect x="1010" y="1695" width="360" height="220" rx="8" fill="#FFFFFF" stroke="#E3E8F0" stroke-width="2"/>
  <text x="1040" y="1752" fill="#252237" font-family="Manrope, Arial, sans-serif" font-size="36" font-weight="800">H1 / 24</text>
  <text x="1040" y="1802" fill="#252237" font-family="Arial, 'PingFang SC', sans-serif" font-size="24" font-weight="700">模块标题 / 16-18</text>
  <text x="1040" y="1848" fill="#4E596F" font-family="Arial, 'PingFang SC', sans-serif" font-size="18">正文 / 13-15，用于说明与状态。</text>
  <text x="1040" y="1888" fill="#66607A" font-family="Arial, 'PingFang SC', sans-serif" font-size="15">辅助说明 / 11-12，保持克制。</text>

  <rect x="1430" y="1695" width="330" height="220" rx="8" fill="#FFFFFF" stroke="#E3E8F0" stroke-width="2"/>
  <text x="1460" y="1750" fill="#252237" font-family="Arial, 'PingFang SC', sans-serif" font-size="25" font-weight="700">Spacing</text>
  <text x="1460" y="1800" fill="#4E596F" font-family="Arial, 'PingFang SC', sans-serif" font-size="21">4 / 8 / 12 / 16 / 24 / 32</text>
  <text x="1460" y="1855" fill="#252237" font-family="Arial, 'PingFang SC', sans-serif" font-size="25" font-weight="700">Radius</text>
  <text x="1460" y="1905" fill="#4E596F" font-family="Arial, 'PingFang SC', sans-serif" font-size="21">按钮与卡片：8</text>

  <text x="160" y="2055" fill="#252237" font-family="Manrope, Arial, 'PingFang SC', sans-serif" font-size="42" font-weight="800">4. 组件示例</text>
  <text x="160" y="2100" fill="#66607A" font-family="Arial, 'PingFang SC', sans-serif" font-size="24">核心组件以“可操作、可理解、可反馈”为准。</text>

  <rect x="160" y="2160" width="300" height="150" rx="8" fill="#FFFFFF" stroke="#E3E8F0" stroke-width="2"/>
  <rect x="195" y="2202" width="66" height="66" rx="8" fill="#DDFAF5" stroke="#4FD1C5" stroke-width="2"/>
  <path d="M228 2217C219 2217 214 2225 214 2234C214 2244 219 2251 228 2251C237 2251 242 2244 242 2234C242 2225 237 2217 228 2217Z" stroke="#244C59" stroke-width="3"/>
  <path d="M208 2238C208 2254 216 2263 228 2263C240 2263 248 2254 248 2238" stroke="#244C59" stroke-width="3" stroke-linecap="round"/>
  <text x="290" y="2225" fill="#252237" font-family="Arial, 'PingFang SC', sans-serif" font-size="22" font-weight="700">语音按钮</text>
  <text x="290" y="2265" fill="#66607A" font-family="Arial, 'PingFang SC', sans-serif" font-size="18">Idle / Recording / Disabled</text>

  <rect x="520" y="2160" width="340" height="150" rx="8" fill="#FFFFFF" stroke="#E3E8F0" stroke-width="2"/>
  <text x="550" y="2210" fill="#252237" font-family="Arial, 'PingFang SC', sans-serif" font-size="23" font-weight="700">画面描述式</text>
  <text x="550" y="2248" fill="#66607A" font-family="Arial, 'PingFang SC', sans-serif" font-size="18">画面里有什么？</text>
  <rect x="550" y="2272" width="110" height="32" rx="8" fill="#FFF7D8"/>
  <text x="605" y="2295" text-anchor="middle" fill="#252237" font-family="Arial, 'PingFang SC', sans-serif" font-size="15">在哪里</text>
  <rect x="675" y="2272" width="130" height="32" rx="8" fill="#DDFAF5"/>
  <text x="740" y="2295" text-anchor="middle" fill="#252237" font-family="Arial, 'PingFang SC', sans-serif" font-size="15">远处有什么</text>

  <rect x="920" y="2160" width="300" height="150" rx="8" fill="#FFFFFF" stroke="#E3E8F0" stroke-width="2"/>
  <text x="950" y="2208" fill="#252237" font-family="Arial, 'PingFang SC', sans-serif" font-size="23" font-weight="700">4x4 拼图</text>
  <g transform="translate(950 2230)">
    <rect width="80" height="80" rx="6" fill="#EAF2FF"/>
    <path d="M20 0V80M40 0V80M60 0V80M0 20H80M0 40H80M0 60H80" stroke="#6BA8FF" stroke-width="2"/>
  </g>
  <text x="1050" y="2265" fill="#66607A" font-family="Arial, 'PingFang SC', sans-serif" font-size="18">完成度 / 步数 / 倒计时</text>

  <rect x="1280" y="2160" width="340" height="150" rx="8" fill="#FFFFFF" stroke="#E3E8F0" stroke-width="2"/>
  <text x="1310" y="2210" fill="#252237" font-family="Arial, 'PingFang SC', sans-serif" font-size="23" font-weight="700">完成反馈</text>
  <text x="1310" y="2248" fill="#66607A" font-family="Arial, 'PingFang SC', sans-serif" font-size="18">最终图、用时、步数</text>
  <rect x="1310" y="2272" width="130" height="34" rx="8" fill="#FF7B7B"/>
  <text x="1375" y="2296" text-anchor="middle" fill="#252237" font-family="Arial, 'PingFang SC', sans-serif" font-size="16" font-weight="700">继续查看</text>
  <rect x="1455" y="2272" width="130" height="34" rx="8" fill="#FFD45B"/>
  <text x="1520" y="2296" text-anchor="middle" fill="#252237" font-family="Arial, 'PingFang SC', sans-serif" font-size="16" font-weight="700">再玩一次</text>
</svg>
