<svg xmlns="http://www.w3.org/2000/svg" viewBox="0 0 720 480">
  <rect width="720" height="480" rx="36" fill="#f6f0ff"/>
  <rect x="82" y="270" width="554" height="132" rx="40" fill="#f6d7aa"/>
  <circle cx="210" cy="230" r="58" fill="#ffd9c2"/><circle cx="360" cy="220" r="58" fill="#dff8f3"/><circle cx="510" cy="230" r="58" fill="#ffd9e6"/>
  <circle cx="210" cy="196" r="28" fill="#ffd875"/><circle cx="360" cy="186" r="28" fill="#9bd8f4"/><circle cx="510" cy="196" r="28" fill="#ffacc8"/>
  <path d="M188 246c20 20 42 20 62 0M338 238c20 20 42 20 62 0M488 246c20 20 42 20 62 0" stroke="#31424a" stroke-width="8" stroke-linecap="round" fill="none"/>
  <rect x="278" y="286" width="164" height="78" rx="20" fill="#fff8e8"/>
  <path d="M326 326h68M326 346h48" stroke="#a3b0b5" stroke-width="8" stroke-linecap="round"/>
  <circle cx="120" cy="118" r="18" fill="#a3e4d7"/><circle cx="610" cy="100" r="24" fill="#ffd875"/>
</svg>
