<svg xmlns="http://www.w3.org/2000/svg" viewBox="0 0 720 480">
  <defs>
    <linearGradient id="bg" x1="0" x2="1" y1="0" y2="1"><stop stop-color="#fff7dc"/><stop offset="1" stop-color="#dff8f3"/></linearGradient>
    <filter id="s" x="-20%" y="-20%" width="140%" height="140%"><feDropShadow dx="0" dy="12" stdDeviation="14" flood-color="#91a89f" flood-opacity=".18"/></filter>
  </defs>
  <rect width="720" height="480" rx="42" fill="url(#bg)"/>
  <circle cx="108" cy="90" r="48" fill="#ffd875" opacity=".55"/>
  <circle cx="618" cy="108" r="62" fill="#a3e4d7" opacity=".5"/>
  <rect x="112" y="120" width="504" height="284" rx="34" fill="#fff" filter="url(#s)"/>
  <rect x="154" y="168" width="154" height="120" rx="18" fill="#ffe4c7"/>
  <rect x="330" y="168" width="154" height="120" rx="18" fill="#dff8f3"/>
  <rect x="506" y="168" width="58" height="120" rx="18" fill="#ffd9e6"/>
  <path d="M166 266c34-44 72-44 106 0" fill="none" stroke="#6fb59c" stroke-width="12" stroke-linecap="round"/>
  <path d="M346 256c28-36 72-58 128 2" fill="none" stroke="#6aa9e8" stroke-width="12" stroke-linecap="round"/>
  <circle cx="196" cy="208" r="18" fill="#ffd875"/><circle cx="242" cy="216" r="18" fill="#ffacc8"/>
  <circle cx="382" cy="214" r="16" fill="#9bd8f4"/><circle cx="432" cy="204" r="18" fill="#ffd875"/>
  <path d="M168 330h384" stroke="#e5e6df" stroke-width="14" stroke-linecap="round"/>
  <path d="M168 356h274" stroke="#e5e6df" stroke-width="14" stroke-linecap="round"/>
  <text x="360" y="78" text-anchor="middle" font-size="34" font-weight="800" fill="#31424a" font-family="Arial,'PingFang SC',sans-serif">共同记忆相册</text>
</svg>
