<svg xmlns="http://www.w3.org/2000/svg" viewBox="0 0 64 64">
  <style>
    svg { stroke: #18252d; stroke-width: 3.2; stroke-linecap: round; stroke-linejoin: round; fill: none; }
    .nostroke { stroke: none; }
    .thin { stroke-width: 2.2; }
    .spark { stroke: #f9cf47; stroke-width: 4; }
  </style><path fill="#fff" d="M12 18c8-4 15-2 20 3 5-5 12-7 20-3v31c-8-4-15-2-20 3-5-5-12-7-20-3z"/><path d="M12 18c8-4 15-2 20 3 5-5 12-7 20-3v31c-8-4-15-2-20 3-5-5-12-7-20-3zM32 21v31"/><path fill="#f4b0d3" d="M28 32c2-5 8-5 8 0 0 4-4 7-4 7s-4-3-4-7z"/></svg>
