<svg xmlns="http://www.w3.org/2000/svg" viewBox="0 0 160 128">
  <defs>
    <filter id="shadow" x="-20%" y="-20%" width="140%" height="150%">
      <feDropShadow dx="0" dy="7" stdDeviation="0" flood-color="#18252d" flood-opacity=".22"/>
    </filter>
  </defs>
  <g stroke="#18252d" stroke-width="5" stroke-linecap="round" stroke-linejoin="round" filter="url(#shadow)">
    <rect x="44" y="18" width="72" height="88" rx="16" fill="#f7d65d"/>
    <circle cx="38" cy="64" r="22" fill="#f7d65d"/>
    <circle cx="122" cy="64" r="22" fill="#f7d65d"/>
  </g>
  <g fill="#18252d">
    <ellipse cx="66" cy="58" rx="5" ry="8"/>
    <ellipse cx="94" cy="58" rx="5" ry="8"/>
  </g>
  <path d="M73 75c2 8 12 8 14 0" fill="none" stroke="#18252d" stroke-width="4" stroke-linecap="round"/>
  <ellipse cx="36" cy="64" rx="11" ry="5" fill="#f7a7ad" opacity=".78"/>
  <ellipse cx="124" cy="64" rx="11" ry="5" fill="#f7a7ad" opacity=".78"/>
  <path d="M80 96s-13-8-13-18c0-6 8-9 13-2 5-7 13-4 13 2 0 10-13 18-13 18z" fill="#f45f87"/>
</svg>
