<svg xmlns="http://www.w3.org/2000/svg" viewBox="0 0 720 480">
  <rect width="720" height="480" rx="36" fill="#dff1ff"/>
  <path d="M0 270c92-44 150-50 236-18s148 46 250 0 150-38 234 0v228H0z" fill="#cfe6da"/>
  <path d="M318 480c22-82 42-142 62-210 16 68 40 130 72 210z" fill="#eaf0f5"/>
  <path d="M360 290c-8 56-12 112-16 180" stroke="#8fb1c9" stroke-width="8" fill="none"/>
  <path d="M142 140c34-48 94-48 128 0M416 122c42-58 116-58 158 0" fill="#fff" opacity=".9"/>
  <path d="M206 206l-16 34M278 190l-16 34M446 206l-16 34M534 188l-16 34" stroke="#6aa9e8" stroke-width="8" stroke-linecap="round"/>
  <circle cx="188" cy="330" r="20" fill="#ffd875"/><circle cx="548" cy="320" r="18" fill="#ffacc8"/>
</svg>
